<svg id="Capa_1" data-name="Capa 1" xmlns="http://www.w3.org/2000/svg" viewBox="0 0 511 511"><defs><style>.cls-1{fill:#fff;}.cls-2{fill:#115dfc;}</style></defs><title>logo doc</title><rect class="cls-1" y="120.63" width="511" height="308.28"/><path class="cls-2" d="M263.31,284a22.24,22.24,0,0,0-14.47-5,22.75,22.75,0,0,0-14.7,5q-6.27,5.06-9.59,14.63t-3.34,23.73q0,13.82,3.34,23.65T234.14,361a22.5,22.5,0,0,0,14.7,5.12A22,22,0,0,0,263.31,361q6.17-5.12,9.51-14.95t3.33-23.65q0-14.14-3.33-23.73T263.31,284Z" transform="translate(0 -1)"/><path class="cls-2" d="M11.39,356q18.54,0,31.29-6t19.26-20.24q6.5-14.22,6.5-38.76,0-24.7-6.66-38.92T42,231.78q-13.17-6.09-32.51-6.09H0V356Z" transform="translate(0 -1)"/><path class="cls-2" d="M497.26,226.34a50.28,50.28,0,0,0-16.17-2.44q-16.41,0-27.87,8t-17.31,23q-5.85,15-5.85,36.16,0,21.94,6,36.81t17.31,22.43q11.3,7.56,27.39,7.56A50.14,50.14,0,0,0,497,355.38a37.14,37.14,0,0,0,12.51-7.07c.51-.44,1-.92,1.47-1.39V234.59c-.41-.39-.8-.81-1.22-1.18A36.34,36.34,0,0,0,497.26,226.34Z" transform="translate(0 -1)"/><path class="cls-2" d="M419.66,401q-26.51-14.39-41.94-42.09T362.29,291q0-40.47,15.6-68.26t42.17-42.09q26.58-14.31,59.24-14.3A141.18,141.18,0,0,1,511,169.8V97.09A96.09,96.09,0,0,0,414.91,1H96.09A96.09,96.09,0,0,0,0,97.09v72.69H13.18q37.38,0,64.69,14.63A102,102,0,0,1,120,226.18Q134.9,253.32,134.91,291q0,37.55-14.79,64.69A101.47,101.47,0,0,1,78.27,397.4q-27.06,14.53-64.11,14.54H0v4A96.09,96.09,0,0,0,96.09,512H414.91A96.09,96.09,0,0,0,511,415.91v-4.13a133.8,133.8,0,0,1-31.7,3.58Q446.15,415.36,419.66,401Zm-88.33-29.66a80.22,80.22,0,0,1-32.27,32.43q-21,11.61-50.22,11.62t-50.38-11.62A79.85,79.85,0,0,1,166,371.31q-11.31-20.81-11.3-48.76,0-27.78,11.3-48.59a79.85,79.85,0,0,1,32.42-32.43q21.14-11.61,50.38-11.62t50.22,11.62A80.22,80.22,0,0,1,331.33,274q11.28,20.81,11.29,48.59Q342.62,350.51,331.33,371.31Z" transform="translate(0 -1)"/></svg>