<svg id="Capa_1" data-name="Capa 1" xmlns="http://www.w3.org/2000/svg" viewBox="0 0 512.32 512.31"><defs><style>.cls-1{fill:#fff;}.cls-2{fill:#115dfc;}</style></defs><title>logo-doc</title><rect class="cls-1" x="0.32" y="149.31" width="512" height="273"/><path class="cls-2" d="M453.81,219.71c-23.22,0-37.21,19.87-37.21,58.76,0,28.26,6.15,54.85,39.73,54.85,21.27,0,31.34-14.83,33.86-34.14H512V252.73H489.63C487.67,231.74,474.52,219.71,453.81,219.71Z" transform="translate(0.32 0.31)"/><path class="cls-2" d="M251.5,301c-19.87,0-25.75,20.42-25.75,36.94,0,27.7,10.36,39.73,25.19,39.73,15.67,0,25.18-12,25.18-39.73C276.12,316.38,266.61,300.15,251.5,301Z" transform="translate(0.32 0.31)"/><path class="cls-2" d="M85.83,276c0-42-13.71-53.16-49-53.16H24.27V330.24h14C69,330.24,85.83,314,85.83,276Z" transform="translate(0.32 0.31)"/><path class="cls-2" d="M350.56,276.23c0-65.2,44.21-105.77,100.46-105.77,24.76,0,45.13,4.94,61,14.21V74.47A74.79,74.79,0,0,0,437.21-.31H74.47A74.79,74.79,0,0,0-.32,74.47v101.3h47c64.92,0,105.21,30.23,105.21,96.55,0,75.83-42.25,104.93-106.89,104.93H-.32v60A74.79,74.79,0,0,0,74.47,512H437.21A74.79,74.79,0,0,0,512,437.21V368.55c-15.07,9.12-33.56,14-54.55,14C390.85,382.57,350.56,341.71,350.56,276.23ZM250.94,416.84c-47,0-83.39-25.75-83.39-75.84,0-50.92,33.58-79.19,83.11-79.19,51.76,0,83.67,30.5,83.67,76.12C334.33,391.65,298,416.84,250.94,416.84Z" transform="translate(0.32 0.31)"/></svg>